<svg width="50" height="50" viewBox="0 0 50 50" fill="none" xmlns="http://www.w3.org/2000/svg">
<path d="M8.33333 20.8333C7.50924 20.8333 6.70366 21.0777 6.01846 21.5355C5.33325 21.9934 4.7992 22.6441 4.48384 23.4055C4.16847 24.1668 4.08596 25.0046 4.24673 25.8129C4.4075 26.6211 4.80434 27.3635 5.38705 27.9463C5.96977 28.529 6.7122 28.9258 7.52046 29.0866C8.32871 29.2474 9.16649 29.1648 9.92785 28.8495C10.6892 28.5341 11.34 28.0001 11.7978 27.3149C12.2556 26.6297 12.5 25.8241 12.5 25C12.5 23.8949 12.061 22.8351 11.2796 22.0537C10.4982 21.2723 9.4384 20.8333 8.33333 20.8333ZM8.33333 27.0833C7.92129 27.0833 7.5185 26.9611 7.1759 26.7322C6.83329 26.5033 6.56627 26.1779 6.40858 25.7972C6.2509 25.4166 6.20964 24.9977 6.29003 24.5935C6.37042 24.1894 6.56883 23.8182 6.86019 23.5268C7.15155 23.2355 7.52277 23.0371 7.9269 22.9567C8.33102 22.8763 8.74991 22.9176 9.13059 23.0752C9.51127 23.2329 9.83664 23.4999 10.0656 23.8425C10.2945 24.1851 10.4167 24.5879 10.4167 25C10.4167 25.5525 10.1972 26.0824 9.80647 26.4731C9.41577 26.8638 8.88587 27.0833 8.33333 27.0833ZM26.0417 20.8333C23.7754 20.8333 21.5601 21.5053 19.6758 22.7644C17.7914 24.0234 16.3228 25.813 15.4555 27.9067C14.5883 30.0005 14.3614 32.3044 14.8035 34.5271C15.2456 36.7498 16.3369 38.7914 17.9394 40.3939C19.5419 41.9964 21.5836 43.0877 23.8063 43.5298C26.029 43.9719 28.3328 43.745 30.4266 42.8778C32.5203 42.0105 34.3099 40.5419 35.5689 38.6576C36.828 36.7732 37.5 34.5579 37.5 32.2916C37.4945 29.2544 36.2855 26.3431 34.1378 24.1955C31.9902 22.0478 29.0789 20.8388 26.0417 20.8333ZM26.0417 41.6666C24.1875 41.6666 22.3749 41.1168 20.8332 40.0867C19.2915 39.0565 18.0899 37.5924 17.3803 35.8793C16.6707 34.1662 16.4851 32.2812 16.8468 30.4627C17.2085 28.6441 18.1014 26.9736 19.4125 25.6625C20.7237 24.3514 22.3941 23.4585 24.2127 23.0968C26.0313 22.735 27.9163 22.9207 29.6293 23.6303C31.3424 24.3398 32.8066 25.5415 33.8367 27.0832C34.8668 28.6249 35.4167 30.4374 35.4167 32.2916C35.4167 33.5228 35.1742 34.7419 34.703 35.8793C34.2319 37.0167 33.5413 38.0502 32.6708 38.9208C31.8002 39.7913 30.7668 40.4819 29.6293 40.953C28.4919 41.4242 27.2728 41.6666 26.0417 41.6666ZM46.875 16.6666H45.8333V15.625C45.8333 14.7962 45.5041 14.0013 44.918 13.4153C44.332 12.8292 43.5371 12.5 42.7083 12.5H40.625C39.7962 12.5 39.0013 12.8292 38.4153 13.4153C37.8292 14.0013 37.5 14.7962 37.5 15.625V16.6666H35.875C35.6584 16.665 35.4477 16.596 35.2722 16.469C35.0967 16.342 34.9651 16.1635 34.8958 15.9583L33.75 12.5C33.5339 11.8888 33.1331 11.3599 32.603 10.9866C32.073 10.6133 31.44 10.4142 30.7917 10.4166H21.2917C20.6434 10.4142 20.0104 10.6133 19.4803 10.9866C18.9503 11.3599 18.5494 11.8888 18.3333 12.5L17.1875 15.9583C17.1182 16.1635 16.9866 16.342 16.8111 16.469C16.6356 16.596 16.4249 16.665 16.2083 16.6666H14.5833V15.625C14.5833 14.7962 14.2541 14.0013 13.668 13.4153C13.082 12.8292 12.2871 12.5 11.4583 12.5H7.29167C6.46286 12.5 5.66801 12.8292 5.08196 13.4153C4.49591 14.0013 4.16667 14.7962 4.16667 15.625V16.6666H3.125C2.2962 16.6666 1.50134 16.9959 0.915291 17.5819C0.32924 18.168 0 18.9628 0 19.7916L0 44.7916C0 45.6204 0.32924 46.4153 0.915291 47.0014C1.50134 47.5874 2.2962 47.9166 3.125 47.9166H46.875C47.7038 47.9166 48.4987 47.5874 49.0847 47.0014C49.6708 46.4153 50 45.6204 50 44.7916V19.7916C50 18.9628 49.6708 18.168 49.0847 17.5819C48.4987 16.9959 47.7038 16.6666 46.875 16.6666ZM39.5833 15.625C39.5833 15.3487 39.6931 15.0838 39.8884 14.8884C40.0838 14.6931 40.3487 14.5833 40.625 14.5833H42.7083C42.9846 14.5833 43.2495 14.6931 43.4449 14.8884C43.6403 15.0838 43.75 15.3487 43.75 15.625V16.6666H39.5833V15.625ZM6.25 15.625C6.25 15.3487 6.35975 15.0838 6.5551 14.8884C6.75045 14.6931 7.0154 14.5833 7.29167 14.5833H11.4583C11.7346 14.5833 11.9996 14.6931 12.1949 14.8884C12.3903 15.0838 12.5 15.3487 12.5 15.625V16.6666H6.25V15.625ZM47.9167 44.7916C47.9167 45.0679 47.8069 45.3329 47.6116 45.5282C47.4162 45.7236 47.1513 45.8333 46.875 45.8333H3.125C2.84873 45.8333 2.58378 45.7236 2.38843 45.5282C2.19308 45.3329 2.08333 45.0679 2.08333 44.7916V19.7916C2.08333 19.5154 2.19308 19.2504 2.38843 19.0551C2.58378 18.8597 2.84873 18.75 3.125 18.75H16.2083C16.8566 18.7525 17.4896 18.5533 18.0197 18.18C18.5497 17.8067 18.9506 17.2779 19.1667 16.6666L20.2917 13.2708C20.351 13.0506 20.4809 12.8559 20.6616 12.7166C20.8422 12.5774 21.0636 12.5013 21.2917 12.5H30.7917C31.0083 12.5016 31.219 12.5707 31.3945 12.6976C31.57 12.8246 31.7015 13.0031 31.7708 13.2083L32.9167 16.6666C33.1328 17.2779 33.5336 17.8067 34.0636 18.18C34.5937 18.5533 35.2267 18.7525 35.875 18.75H46.875C47.1513 18.75 47.4162 18.8597 47.6116 19.0551C47.8069 19.2504 47.9167 19.5154 47.9167 19.7916V44.7916ZM23.9583 16.6666H28.125C28.4013 16.6666 28.6662 16.5569 28.8616 16.3616C29.0569 16.1662 29.1667 15.9012 29.1667 15.625C29.1667 15.3487 29.0569 15.0838 28.8616 14.8884C28.6662 14.6931 28.4013 14.5833 28.125 14.5833H23.9583C23.6821 14.5833 23.4171 14.6931 23.2218 14.8884C23.0264 15.0838 22.9167 15.3487 22.9167 15.625C22.9167 15.9012 23.0264 16.1662 23.2218 16.3616C23.4171 16.5569 23.6821 16.6666 23.9583 16.6666ZM26.0417 25C24.5995 25 23.1897 25.4276 21.9906 26.2288C20.7915 27.0301 19.8569 28.1689 19.305 29.5012C18.7532 30.8336 18.6088 32.2997 18.8901 33.7142C19.1715 35.1286 19.8659 36.4279 20.8857 37.4476C21.9054 38.4674 23.2047 39.1619 24.6191 39.4432C26.0336 39.7246 27.4997 39.5802 28.8321 39.0283C30.1644 38.4764 31.3032 37.5418 32.1045 36.3427C32.9057 35.1436 33.3333 33.7338 33.3333 32.2916C33.3333 30.3578 32.5651 28.5031 31.1977 27.1357C29.8302 25.7682 27.9755 25 26.0417 25ZM26.0417 37.5C25.0116 37.5 24.0046 37.1945 23.1481 36.6222C22.2916 36.0499 21.624 35.2365 21.2298 34.2848C20.8356 33.3331 20.7324 32.2859 20.9334 31.2756C21.1344 30.2652 21.6304 29.3372 22.3588 28.6088C23.0872 27.8804 24.0153 27.3844 25.0256 27.1834C26.0359 26.9824 27.0831 27.0856 28.0348 27.4798C28.9865 27.874 29.7999 28.5415 30.3722 29.3981C30.9445 30.2546 31.25 31.2615 31.25 32.2916C31.25 33.673 30.7013 34.9977 29.7245 35.9745C28.7478 36.9512 27.423 37.5 26.0417 37.5ZM40.625 20.8333C40.419 20.8333 40.2176 20.8944 40.0463 21.0089C39.875 21.1233 39.7415 21.286 39.6626 21.4764C39.5838 21.6667 39.5632 21.8761 39.6033 22.0782C39.6435 22.2803 39.7427 22.4659 39.8884 22.6116C40.0341 22.7572 40.2197 22.8564 40.4218 22.8966C40.6238 22.9368 40.8333 22.9162 41.0236 22.8374C41.214 22.7585 41.3767 22.625 41.4911 22.4537C41.6056 22.2824 41.6667 22.081 41.6667 21.875C41.6667 21.5987 41.5569 21.3338 41.3616 21.1384C41.1662 20.9431 40.9013 20.8333 40.625 20.8333Z" fill="black"/>
</svg>
