<svg xmlns="http://www.w3.org/2000/svg" width="24" height="24" fill="none" viewBox="0 0 24 24" id="explore">
  <path fill="#000" fill-rule="evenodd" d="M11.999 0.999908C5.92389 0.999908 0.999023 5.92478 0.999023 11.9999C0.999023 18.075 5.92389 22.9999 11.999 22.9999C18.0742 22.9999 22.999 18.075 22.999 11.9999C22.999 5.92478 18.0742 0.999908 11.999 0.999908ZM17.6571 6.34294C17.9399 6.6258 18.027 7.05002 17.8785 7.42144L15.05 14.4925C14.9446 14.7562 14.7332 14.9601 14.4716 15.0579L7.4212 17.878C7.04978 18.0266 6.62556 17.9395 6.3427 17.6567C6.05984 17.3738 5.97276 16.9496 6.12133 16.5782L8.94976 9.50709C9.05522 9.24344 9.26661 9.03945 9.52821 8.94172L16.5786 6.12157C16.95 5.97301 17.3742 6.06008 17.6571 6.34294ZM11.6584 10.2437L13.7563 12.3417L15.1549 8.8451L11.6584 10.2437ZM8.84486 15.1545L10.2435 11.6579L12.3414 13.7559L8.84486 15.1545Z" clip-rule="evenodd"></path>
</svg>
