<svg width="50" height="50" viewBox="0 0 50 50" fill="none" xmlns="http://www.w3.org/2000/svg">
<g clip-path="url(#clip0_485_336)">
<path d="M39.434 0H10.566C4.73056 0 0 4.73048 0 10.5659V39.4338C0 45.2693 4.73056 50 10.566 50H39.434C45.2694 50 50 45.2693 50 39.4338V10.5659C50 4.73048 45.2694 0 39.434 0Z" fill="url(#paint0_linear_485_336)"/>
<path d="M25 12C23.2926 11.9992 21.6018 12.3348 20.0242 12.9878C18.4466 13.6408 17.0132 14.5983 15.8059 15.8057C14.5985 17.013 13.641 18.4466 12.988 20.0242C12.3349 21.6018 11.9992 23.2926 12 25V37C12 37.2652 12.1054 37.5195 12.2929 37.707C12.4804 37.8946 12.7348 38 13 38H17C17.906 38 18.724 37.6578 19.25 37.0618C19.776 36.4678 20 35.696 20 34.938V29C20 28.27 19.778 27.566 19.312 27C19.0613 26.6938 18.7471 26.4456 18.391 26.273C18.035 26.1003 17.6456 26.0073 17.25 26H14V25C14 18.888 18.888 14 25 14C31.112 14 36 18.888 36 25V26H32.75C31.91 26 31.152 26.434 30.688 27C30.2322 27.5659 29.9888 28.2735 30 29V34.938C30 35.696 30.224 36.468 30.75 37.064C31.276 37.658 32.094 38 33 38H37C37.2652 38 37.5196 37.8946 37.7071 37.707C37.8946 37.5195 38 37.2652 38 37V32.25C38.0006 32.23 38.0006 32.2099 38 32.1899V25C38 17.816 32.184 12 25 12ZM14 28H17.25C17.47 28 17.606 28.1358 17.75 28.3118C17.9103 28.5053 17.9986 28.7487 18 29V34.938C18 35.314 17.886 35.596 17.75 35.75C17.614 35.904 17.446 36 17 36H14V32.0618C14.0006 32.0418 14.0006 32.0219 14 32.002V28ZM32.75 28H36V36H33C32.554 36 32.386 35.906 32.25 35.75C32.114 35.596 32 35.314 32 34.938V29C32 28.73 32.106 28.4878 32.25 28.3118C32.394 28.1378 32.53 28 32.75 28Z" fill="white"/>
</g>
<defs>
<linearGradient id="paint0_linear_485_336" x1="3.26564" y1="0.668796" x2="46.7022" y2="48.5316" gradientUnits="userSpaceOnUse">
<stop stop-color="#FF1679"/>
<stop offset="1" stop-color="#FF770B"/>
</linearGradient>
<clipPath id="clip0_485_336">
<rect width="50" height="50" fill="white"/>
</clipPath>
</defs>
</svg>
